<svg xmlns="http://www.w3.org/2000/svg" width="56" height="56" fill="none"><g clip-path="url(#a)"><g filter="url(#b)"><path stroke="url(#c)" stroke-linecap="round" stroke-linejoin="round" stroke-width="1.5" d="M9.286 13.38h36.772c1.11 0 2.137.51 2.707 1.343.57.833.597 1.866.073 2.721l-18.386 30.03c-.55.896-1.618 1.455-2.78 1.455-1.162 0-2.23-.56-2.78-1.456L6.508 17.444a2.463 2.463 0 0 1 .073-2.721c.57-.833 1.597-1.343 2.706-1.342Z" clip-rule="evenodd"/></g><g filter="url(#d)"><path stroke="url(#e)" stroke-linecap="round" stroke-linejoin="round" stroke-width="1.5" d="m45.42 12.208-5.009 36.43c-.15 1.099-.796 2.047-1.698 2.498-.903.45-1.93.338-2.706-.298L8.763 28.532c-.813-.666-1.222-1.8-1.064-2.951.159-1.152.858-2.134 1.82-2.556L41.774 8.901a2.463 2.463 0 0 1 2.686.443c.748.678 1.113 1.766.962 2.864Z" clip-rule="evenodd"/></g></g><defs><linearGradient id="c" x1="6.132" x2="41.011" y1="14.283" y2="55.284" gradientUnits="userSpaceOnUse"><stop stop-color="#0FEFFD"/><stop offset=".516" stop-color="#FF00F5"/><stop offset=".776" stop-color="#0FEFFD" stop-opacity="0"/></linearGradient><linearGradient id="e" x1="44.956" x2="-.414" y1="8.961" y2="37.93" gradientUnits="userSpaceOnUse"><stop stop-color="#0FEFFD"/><stop offset=".516" stop-color="#FF00F5"/><stop offset=".776" stop-color="#0FEFFD" stop-opacity="0"/></linearGradient><filter id="b" width="58.459" height="52.152" x="-1.557" y="9.079" color-interpolation-filters="sRGB" filterUnits="userSpaceOnUse"><feFlood flood-opacity="0" result="BackgroundImageFix"/><feColorMatrix in="SourceAlpha" result="hardAlpha" values="0 0 0 0 0 0 0 0 0 0 0 0 0 0 0 0 0 0 127 0"/><feOffset dy="4"/><feGaussianBlur stdDeviation="2"/><feColorMatrix values="0 0 0 0 0 0 0 0 0 0 0 0 0 0 0 0 0 0 0.25 0"/><feBlend in2="BackgroundImageFix" result="effect1_dropShadow_819_568"/><feBlend in="SourceGraphic" in2="effect1_dropShadow_819_568" result="shape"/></filter><filter id="d" width="58.614" height="64.003" x="-4" y="0" color-interpolation-filters="sRGB" filterUnits="userSpaceOnUse"><feFlood flood-opacity="0" result="BackgroundImageFix"/><feColorMatrix in="SourceAlpha" result="hardAlpha" values="0 0 0 0 0 0 0 0 0 0 0 0 0 0 0 0 0 0 127 0"/><feOffset dy="4"/><feGaussianBlur stdDeviation="2"/><feColorMatrix values="0 0 0 0 0 0 0 0 0 0 0 0 0 0 0 0 0 0 0.25 0"/><feBlend in2="BackgroundImageFix" result="effect1_dropShadow_819_568"/><feBlend in="SourceGraphic" in2="effect1_dropShadow_819_568" result="shape"/></filter><clipPath id="a"><path fill="#fff" d="M0 0v56h56V0z"/></clipPath></defs></svg>